# xmcd
#
# Track frame offsets:
#	150
#	13263
#	36246
#	59860
#	70207
#	84294
#	98360
#	111114
#	125007
#	134349
#	148814
#	162754
#
# Disc length: 2716 seconds
#
# Revision: 1
# Processed by: cddbd v1.5.2PL0 Copyright (c) Steve Scherf et al.
# Submitted via: audiograbber 1.83.01
#
DISCID=a90a9a0c
DTITLE=KC And The Sunshine Band - KC And The Sunshine Band
DYEAR=1975
DGENRE=Funk
TTITLE0=Let it go (Pt.1)
TTITLE1=That's the way (I like it)
TTITLE2=Get down tonight
TTITLE3=Boogie shoes
TTITLE4=Ain't nothin' wrong
TTITLE5=I'm so crazy ('about you)
TTITLE6=What makes you happy
TTITLE7=I get lifted
TTITLE8=Let go (Pt.2)
TTITLE9=Get down tonight (Single)
TTITLE10=That's the way (I like it) (Single)
TTITLE11=Get down tonight (Tom Moulton Mix)
EXTD=
EXTT0=
EXTT1=
EXTT2=
EXTT3=
EXTT4=
EXTT5=
EXTT6=
EXTT7=
EXTT8=
EXTT9=
EXTT10=
EXTT11=
PLAYORDER=
